<svg xmlns="http://www.w3.org/2000/svg" width="94.914" height="92.5" viewBox="0 0 94.914 92.5"><defs><style>.a{fill:#006df0;}.b{fill:#0062d8;}.c{fill:#ffcd00;}.d{fill:#d80027;}.e{fill:#c20023;}.f{fill:#ff9811;}.g{fill:#ff5023;}.h{fill:#ff6243;}.i{fill:#fff;}</style></defs><path class="a" d="M29.189,44.744c-2.215-1.288-2.635-4.924-4.209-7.019L8.208,66.615,21.98,62.966l3.243,12.22,16.251-28.06a10.924,10.924,0,0,0-3.453-2.094C35.319,44.3,31.552,46.119,29.189,44.744Z" transform="translate(1.612 17.206)"/><path class="b" d="M32.491,45.032c-2.7-.729-6.468,1.087-8.832-.288-2.215-1.288-2.635-4.924-4.209-7.019l-1.74,3.006.158.158c1.582,2.094,2,5.731,4.209,7.019,2.363,1.375,6.13-.441,8.832.288a10.271,10.271,0,0,1,3.281,1.962l1.754-3.031a10.925,10.925,0,0,0-3.453-2.094Z" transform="translate(7.142 17.206)"/><path class="a" d="M47,44.789c-2.373,1.364-6.127-.475-8.832.244A10.9,10.9,0,0,0,34.7,47.108L50.808,75.253l3.306-12.2,13.753,3.722L51.247,37.794C49.661,39.879,49.217,43.514,47,44.789Z" transform="translate(17.03 17.247)"/><path class="b" d="M51.247,37.794c-1.582,2.085-2.03,5.72-4.247,7-2.373,1.364-6.127-.475-8.832.244A10.9,10.9,0,0,0,34.7,47.108l1.74,3.044a10.3,10.3,0,0,1,3.3-1.955c2.705-.715,6.462,1.12,8.832-.244,2.215-1.275,2.662-4.9,4.247-7l.131-.179Z" transform="translate(17.03 17.247)"/><path class="c" d="M72.967,52.909c-1.392,2.4-5.568,2.673-7.53,4.619-.142.158-.269.332-.411.506-1.582,2.088-2.025,5.726-4.239,7.008-2.373,1.36-6.138-.475-8.843.237a11.122,11.122,0,0,0-3.464,2.072,7.672,7.672,0,0,1-4.319,2.088,7.652,7.652,0,0,1-4.319-2.1,11.073,11.073,0,0,0-3.464-2.1c-2.689-.728-6.454,1.092-8.827-.285-2.215-1.281-2.626-4.92-4.208-7.008a3.322,3.322,0,0,0-.411-.522c-1.946-1.946-6.122-2.262-7.514-4.667-1.36-2.357.475-6.122-.237-8.827-.7-2.61-4.16-4.951-4.16-7.783s3.5-5.173,4.208-7.783c.728-2.705-1.092-6.47.285-8.827,1.392-2.4,5.584-2.673,7.53-4.619S25.3,8.79,27.709,7.4c2.357-1.36,6.122.475,8.827-.237,2.61-.7,4.967-4.16,7.8-4.16S49.492,6.5,52.1,7.208c2.705.728,6.47-1.092,8.827.285,2.4,1.392,2.673,5.584,4.619,7.53s6.122,2.262,7.514,4.667c1.36,2.357-.475,6.122.237,8.827.7,2.61,4.176,4.951,4.16,7.783s-3.5,5.173-4.192,7.783c-.743,2.705,1.076,6.47-.3,8.827Z" transform="translate(3.249 -3)"/><circle class="d" cx="19" cy="19" r="19" transform="translate(29 14)"/><path class="e" d="M32.582,12c-.535,0-1.058.036-1.582.079a18.969,18.969,0,0,1,0,37.807c.524.043,1.047.079,1.582.079a18.983,18.983,0,1,0,0-37.966Z" transform="translate(14.875 2.237)"/><path class="f" d="M58.709,18.015l.2.8.2-.8a9.491,9.491,0,0,1,6.905-6.9l.8-.2-.8-.2A9.491,9.491,0,0,1,59.11,3.8l-.2-.8-.2.8a9.491,9.491,0,0,1-6.9,6.907l-.8.2.8.2a9.491,9.491,0,0,1,6.9,6.9Z" transform="translate(26.513 -3)"/><path class="f" d="M10.709,18.015l.2.8.2-.8a9.491,9.491,0,0,1,6.9-6.9l.8-.2-.8-.2A9.491,9.491,0,0,1,11.11,3.8l-.2-.8-.2.8a9.491,9.491,0,0,1-6.9,6.907l-.8.2.8.2a9.491,9.491,0,0,1,6.9,6.9Z" transform="translate(-1.418 -3)"/><path class="g" d="M59.11,34.8l-.2-.8-.2.8a9.491,9.491,0,0,1-6.9,6.907l-.8.2.8.2a9.491,9.491,0,0,1,6.9,6.9l.2.8.2-.8a9.491,9.491,0,0,1,6.905-6.9l.8-.2-.8-.2a9.491,9.491,0,0,1-6.9-6.907Z" transform="translate(26.513 15.039)"/><path class="g" d="M3,41.909l.8.2a9.491,9.491,0,0,1,6.9,6.9l.2.8.2-.8a9.491,9.491,0,0,1,6.9-6.9l.8-.2-.8-.2a9.491,9.491,0,0,1-6.9-6.907l-.2-.8-.2.8a9.491,9.491,0,0,1-6.9,6.907Z" transform="translate(-1.418 15.039)"/><g transform="translate(0 28.474)"><path class="h" d="M58,21h3.164v3.164H58Z" transform="translate(30.586 -21)"/><path class="h" d="M60,23h3.164v3.164H60Z" transform="translate(31.75 -19.836)"/><path class="h" d="M56,23h3.164v3.164H56Z" transform="translate(29.423 -19.836)"/><path class="h" d="M58,25h3.164v3.164H58Z" transform="translate(30.586 -18.672)"/><path class="h" d="M4,21H7.164v3.164H4Z" transform="translate(-0.836 -21)"/><path class="h" d="M2,23H5.164v3.164H2Z" transform="translate(-2 -19.836)"/><path class="h" d="M6,23H9.164v3.164H6Z" transform="translate(0.328 -19.836)"/><path class="h" d="M4,25H7.164v3.164H4Z" transform="translate(-0.836 -18.672)"/></g><path class="i" d="M26.14,22.35v1.3a.7.7,0,0,1-.094.314.461.461,0,0,1-.328.134h-2.25a4.589,4.589,0,0,1-1.734,2.955,6.734,6.734,0,0,1-3.7,1.433q2.25,2.283,6.187,6.851a.415.415,0,0,1-.375.672H21.266c-.188,0-.3-.06-.328-.179q-4.968-5.551-6.7-7.3a.353.353,0,0,1-.094-.269V26.649a.694.694,0,0,1,.094-.314.472.472,0,0,1,.328-.089h1.5a6.568,6.568,0,0,0,2.859-.582A2.439,2.439,0,0,0,20.282,24.1H14.563a.461.461,0,0,1-.328-.134.69.69,0,0,1-.094-.314v-1.3a.355.355,0,0,1,.094-.269.46.46,0,0,1,.328-.134h5.531q-.8-1.433-3.609-1.433H14.562a.461.461,0,0,1-.328-.134.655.655,0,0,1-.094-.269v-1.7a.694.694,0,0,1,.094-.314.472.472,0,0,1,.328-.089H25.718A.4.4,0,0,1,26,18.1a.422.422,0,0,1,.141.314v1.3q0,.225-.141.269a.413.413,0,0,1-.281.134h-3.14a4,4,0,0,1,.844,1.836h2.3a.463.463,0,0,1,.328.134.356.356,0,0,1,.095.269Z" transform="translate(26.859 7.993)"/></svg>