<svg xmlns="http://www.w3.org/2000/svg" width="38" height="38" viewBox="0 0 38 38"><defs><style>.a{fill:#35332b;}.b{fill:#e50913;}</style></defs><path class="a" d="M14.74,0a14.74,14.74,0,1,0,14.74,14.74A14.74,14.74,0,0,0,14.74,0Z" transform="translate(4.113 5.169)"/><path class="b" d="M19,0A19,19,0,1,0,38,19,19,19,0,0,0,19,0ZM8.406,12.92a2.849,2.849,0,1,1,0,.023C8.406,12.935,8.406,12.928,8.406,12.92ZM28.777,29.963a.761.761,0,0,1-.977-.452A9.193,9.193,0,0,0,19,23.9c-4.028,0-7.6,2.257-8.8,5.616h0a.761.761,0,1,1-1.429-.524A10.713,10.713,0,0,1,19,22.382a10.707,10.707,0,0,1,10.23,6.6A.761.761,0,0,1,28.777,29.963Zm-2.01-14.17h-.023a2.851,2.851,0,1,1,.023,0Z"/></svg>