<svg xmlns="http://www.w3.org/2000/svg" width="38" height="38.001" viewBox="0 0 38 38.001"><defs><style>.a{fill:#35332b;}.b{fill:#29a63a;}</style></defs><g transform="translate(0 0)"><path class="a" d="M14.74,0a14.74,14.74,0,1,0,14.74,14.74A14.74,14.74,0,0,0,14.74,0Z" transform="translate(4.113 4.169)"/><path class="b" d="M232-517a18.882,18.882,0,0,1-7.4-1.493,18.935,18.935,0,0,1-6.039-4.072,18.936,18.936,0,0,1-4.072-6.04A18.883,18.883,0,0,1,213-536a18.881,18.881,0,0,1,1.493-7.4,18.936,18.936,0,0,1,4.072-6.039,18.936,18.936,0,0,1,6.039-4.072A18.882,18.882,0,0,1,232-555a18.881,18.881,0,0,1,7.4,1.493,18.937,18.937,0,0,1,6.039,4.072,18.938,18.938,0,0,1,4.072,6.039A18.88,18.88,0,0,1,251-536a18.882,18.882,0,0,1-1.493,7.4,18.937,18.937,0,0,1-4.072,6.04,18.936,18.936,0,0,1-6.039,4.072A18.881,18.881,0,0,1,232-517Zm-10.744-15.684a.824.824,0,0,0-.247.037,1.051,1.051,0,0,0-.631.6,1.443,1.443,0,0,0,.039,1.2,12.45,12.45,0,0,0,11.181,7.076,12.447,12.447,0,0,0,11.18-7.077c.371-.777.254-1.531-.276-1.793a.914.914,0,0,0-.406-.092,1.471,1.471,0,0,0-1.249.91,11.117,11.117,0,0,1-3.865,4.241,10.039,10.039,0,0,1-5.383,1.821,10.539,10.539,0,0,1-8.925-5.737A1.829,1.829,0,0,0,221.256-532.684Zm18.487-12.223a2.852,2.852,0,0,0-2.849,2.849,2.854,2.854,0,0,0,2.85,2.85h.023a2.853,2.853,0,0,0,2.827-2.873,2.858,2.858,0,0,0-2.849-2.827Zm-15.489,0a2.857,2.857,0,0,0-2.849,2.827v.022a2.854,2.854,0,0,0,2.85,2.85,2.853,2.853,0,0,0,2.849-2.85,2.828,2.828,0,0,0-.834-2.015,2.831,2.831,0,0,0-2.015-.834Z" transform="translate(-213 555)"/></g></svg>