<svg xmlns="http://www.w3.org/2000/svg" width="38" height="38.001" viewBox="0 0 38 38.001"><defs><style>.a{fill:#35332b;}.b{fill:#ff940a;}</style></defs><g transform="translate(0 0)"><path class="a" d="M14.74,0a14.74,14.74,0,1,0,14.74,14.74A14.74,14.74,0,0,0,14.74,0Z" transform="translate(4.113 5.169)"/><path class="b" d="M448-517a18.882,18.882,0,0,1-7.4-1.493,18.935,18.935,0,0,1-6.039-4.072,18.936,18.936,0,0,1-4.072-6.04A18.883,18.883,0,0,1,429-536a18.882,18.882,0,0,1,1.493-7.4,18.937,18.937,0,0,1,4.072-6.039,18.936,18.936,0,0,1,6.039-4.072A18.882,18.882,0,0,1,448-555a18.88,18.88,0,0,1,7.4,1.493,18.938,18.938,0,0,1,6.039,4.072,18.937,18.937,0,0,1,4.072,6.039A18.88,18.88,0,0,1,467-536a18.882,18.882,0,0,1-1.493,7.4,18.937,18.937,0,0,1-4.072,6.04,18.936,18.936,0,0,1-6.039,4.072A18.88,18.88,0,0,1,448-517Zm-.068-11.52A26.489,26.489,0,0,1,457.986-526a1.058,1.058,0,0,0,1.105-1c0-.547-1.094-1-1.105-1a29.4,29.4,0,0,0-10.053-2.207A27.546,27.546,0,0,0,438.1-528c-.011,0-1.1.453-1.1,1a1.058,1.058,0,0,0,1.1,1A24.962,24.962,0,0,1,447.933-528.52Zm7.81-16.387a2.852,2.852,0,0,0-2.849,2.849,2.854,2.854,0,0,0,2.85,2.85h.022a2.853,2.853,0,0,0,2.827-2.873,2.858,2.858,0,0,0-2.849-2.827Zm-15.489,0a2.857,2.857,0,0,0-2.849,2.827v.022a2.854,2.854,0,0,0,2.85,2.85,2.853,2.853,0,0,0,2.849-2.85,2.828,2.828,0,0,0-.834-2.015,2.831,2.831,0,0,0-2.015-.834Z" transform="translate(-429 555)"/></g></svg>