<svg xmlns="http://www.w3.org/2000/svg" width="119.568" height="43.315" viewBox="0 0 119.568 43.315">
  <g id="Logo" transform="translate(-100.665 -137.82)">
    <g id="Group_288" data-name="Group 288" transform="translate(100.665 137.82)">
      <circle id="Ellipse_9" data-name="Ellipse 9" cx="21.658" cy="21.658" r="21.658" transform="translate(0 0)" fill="#0c5f33"/>
      <g id="Group_291" data-name="Group 291" transform="translate(6.203 6.563)">
        <path id="Path_82" data-name="Path 82" d="M658.549,184.6s-1.6-1.291-.473-5.55,2.855-5.133,2.685-5.788c-.141-.655-1.018-.355-1.3.246s-1.413,1.884-2.459,1.665c-1.018-.218-1.216-4.314-1.979-4.723-.735-.409-.509,1.474-.254,3.112s-1.159.71-2.035-1.256-1.385-1.42-1.5-1.119c-.113.273,1.922,3.795,1.752,3.959s-2.714-2.785-2.968-2.7-.678.3-.085,1.229,2.516,2.484,2.4,2.73c-.141.246-1.724-1.174-2.289-1.2-.594-.055-.367.764.678,1.5s3.618,1.583,3.646,4.341-.658,3.612-.658,3.612" transform="translate(-639.732 -155.378)" fill="#ddc882"/>
        <path id="Path_83" data-name="Path 83" d="M661.482,151.624s-2.092-.6-2.2-2.457a6.647,6.647,0,0,1,.876-3.467S664.365,148.4,661.482,151.624Z" transform="translate(-646.642 -137.428)" fill="#fff"/>
        <path id="Path_84" data-name="Path 84" d="M647.72,157.632a2.476,2.476,0,0,1-2.2-1.42,5.278,5.278,0,0,1-.141-2.812S649.162,154.574,647.72,157.632Z" transform="translate(-636.583 -143.026)" fill="#fff"/>
        <path id="Path_85" data-name="Path 85" d="M673.243,142.487a2.281,2.281,0,0,1-.537-2.484,5.557,5.557,0,0,1,1.95-2.1S676.465,141.258,673.243,142.487Z" transform="translate(-656.142 -131.757)" fill="#fff"/>
        <path id="Path_86" data-name="Path 86" d="M641.539,169.357a2.027,2.027,0,0,1-2.092-.573,4.484,4.484,0,0,1-.848-2.184S641.85,166.6,641.539,169.357Z" transform="translate(-631.816 -152.622)" fill="#fff"/>
        <path id="Path_87" data-name="Path 87" d="M639.3,183.507a2.067,2.067,0,0,1-2.148.382,4.587,4.587,0,0,1-1.753-1.583S638.311,180.914,639.3,183.507Z" transform="translate(-629.52 -163.769)" fill="#fff"/>
        <path id="Path_88" data-name="Path 88" d="M642.244,194.17a1.948,1.948,0,0,1-1.442,1.583,4.743,4.743,0,0,1-2.4-.218S639.813,192.7,642.244,194.17Z" transform="translate(-631.672 -172.356)" fill="#fff"/>
        <path id="Path_89" data-name="Path 89" d="M629.929,190.394a1.986,1.986,0,0,1-1.526,1.5,4.808,4.808,0,0,1-2.4-.328S627.583,188.811,629.929,190.394Z" transform="translate(-622.778 -169.563)" fill="#fff"/>
        <path id="Path_90" data-name="Path 90" d="M631.157,173.6a2.085,2.085,0,0,1-2.12.464,4.58,4.58,0,0,1-1.837-1.529S630.055,171.036,631.157,173.6Z" transform="translate(-623.638 -156.621)" fill="#fff"/>
        <path id="Path_91" data-name="Path 91" d="M625.392,182.3a1.663,1.663,0,0,1-1.555.874,3.829,3.829,0,0,1-1.837-.764S623.865,180.558,625.392,182.3Z" transform="translate(-619.908 -163.494)" fill="#fff"/>
        <path id="Path_92" data-name="Path 92" d="M634.142,156.047a1.685,1.685,0,0,1-1.781-.218,3.824,3.824,0,0,1-.961-1.693S634.057,153.754,634.142,156.047Z" transform="translate(-626.651 -143.544)" fill="#fff"/>
        <path id="Path_93" data-name="Path 93" d="M624.7,148.308a1.383,1.383,0,0,1-1.442-.191,2.99,2.99,0,0,1-.763-1.365S624.648,146.452,624.7,148.308Z" transform="translate(-620.267 -138.18)" fill="#fff"/>
        <path id="Path_94" data-name="Path 94" d="M638.432,144.984a1.751,1.751,0,0,1-1.7-.628,3.547,3.547,0,0,1-.537-1.856S638.913,142.746,638.432,144.984Z" transform="translate(-630.094 -135.101)" fill="#fff"/>
        <path id="Path_95" data-name="Path 95" d="M639.7,132.184a1.752,1.752,0,0,1-1.7-.628,3.378,3.378,0,0,1-.509-1.856S640.181,129.946,639.7,132.184Z" transform="translate(-631.023 -125.796)" fill="#fff"/>
        <path id="Path_96" data-name="Path 96" d="M665.418,118.512a1.566,1.566,0,0,1-.311-1.72,3.827,3.827,0,0,1,1.385-1.392S667.651,117.775,665.418,118.512Z" transform="translate(-650.719 -115.4)" fill="#fff"/>
        <path id="Path_97" data-name="Path 97" d="M701.22,145.066a1.455,1.455,0,0,1,.537-1.474,3.593,3.593,0,0,1,1.7-.491S703.284,145.421,701.22,145.066Z" transform="translate(-676.714 -135.538)" fill="#fff"/>
        <path id="Path_98" data-name="Path 98" d="M715.62,165.566a1.455,1.455,0,0,1,.537-1.474,3.592,3.592,0,0,1,1.7-.491S717.712,165.948,715.62,165.566Z" transform="translate(-687.043 -150.441)" fill="#fff"/>
        <path id="Path_99" data-name="Path 99" d="M617.6,168.98a1.527,1.527,0,0,1-1.47.628,3.459,3.459,0,0,1-1.526-.874S616.465,167.26,617.6,168.98Z" transform="translate(-614.6 -153.746)" fill="#fff"/>
        <path id="Path_100" data-name="Path 100" d="M665.384,134.376a1.665,1.665,0,0,1-.989-1.474,3.769,3.769,0,0,1,.707-1.8S667.136,132.847,665.384,134.376Z" transform="translate(-650.318 -126.814)" fill="#fff"/>
        <path id="Path_101" data-name="Path 101" d="M627.042,162.847a1.685,1.685,0,0,1-1.781-.218,3.824,3.824,0,0,1-.961-1.693S626.985,160.554,627.042,162.847Z" transform="translate(-621.558 -148.487)" fill="#fff"/>
        <path id="Path_102" data-name="Path 102" d="M649.767,141.714a2.4,2.4,0,0,1-1.7-1.911,5.06,5.06,0,0,1,.65-2.7S651.972,139.175,649.767,141.714Z" transform="translate(-638.602 -131.176)" fill="#fff"/>
        <path id="Path_103" data-name="Path 103" d="M673.611,160.406a2.94,2.94,0,0,1-.509-3.222,6.936,6.936,0,0,1,2.657-2.484S677.823,159.177,673.611,160.406Z" transform="translate(-656.341 -143.971)" fill="#fff"/>
        <path id="Path_104" data-name="Path 104" d="M687.582,168.067a2.01,2.01,0,0,1,.113-2.184,4.746,4.746,0,0,1,2.092-1.283S690.549,167.794,687.582,168.067Z" transform="translate(-666.75 -151.168)" fill="#fff"/>
        <path id="Path_105" data-name="Path 105" d="M699.2,167.881a2.058,2.058,0,0,1,1.244-1.829,4.8,4.8,0,0,1,2.459-.082S701.885,169.082,699.2,167.881Z" transform="translate(-675.287 -152.073)" fill="#fff"/>
        <path id="Path_106" data-name="Path 106" d="M697.8,157.581a2.058,2.058,0,0,1,1.244-1.829,4.8,4.8,0,0,1,2.459-.082S700.457,158.782,697.8,157.581Z" transform="translate(-674.283 -144.585)" fill="#fff"/>
        <path id="Path_107" data-name="Path 107" d="M688.85,150.167a1.951,1.951,0,0,1,.113-2.184,4.745,4.745,0,0,1,2.092-1.283S691.818,149.894,688.85,150.167Z" transform="translate(-667.65 -138.155)" fill="#fff"/>
        <path id="Path_108" data-name="Path 108" d="M686.182,137.067a2.01,2.01,0,0,1,.113-2.184,4.746,4.746,0,0,1,2.092-1.283S689.121,136.794,686.182,137.067Z" transform="translate(-665.745 -128.631)" fill="#fff"/>
        <path id="Path_109" data-name="Path 109" d="M673.782,126.167a2.01,2.01,0,0,1,.113-2.184,4.746,4.746,0,0,1,2.092-1.283S676.721,125.894,673.782,126.167Z" transform="translate(-656.85 -120.707)" fill="#fff"/>
        <path id="Path_110" data-name="Path 110" d="M654.205,124s-1.413-.3-1.583-1.556a4.345,4.345,0,0,1,.424-2.348S655.986,121.711,654.205,124Z" transform="translate(-641.853 -118.817)" fill="#fff"/>
        <path id="Path_111" data-name="Path 111" d="M688.9,188.81a2.089,2.089,0,0,1,1.809-1.31,4.808,4.808,0,0,1,2.374.71S690.992,190.8,688.9,188.81Z" transform="translate(-667.898 -167.816)" fill="#fff"/>
        <path id="Path_112" data-name="Path 112" d="M691.3,178.938s.452-1.31,1.611-1.338a3.853,3.853,0,0,1,2.092.71S693.166,180.9,691.3,178.938Z" transform="translate(-669.62 -160.619)" fill="#fff"/>
        <path id="Path_113" data-name="Path 113" d="M708.3,175.382s.707-.983,1.639-.71a3.294,3.294,0,0,1,1.555,1.037S709.346,177.43,708.3,175.382Z" transform="translate(-681.815 -158.456)" fill="#fff"/>
        <path id="Path_114" data-name="Path 114" d="M706.8,184.282a1.649,1.649,0,0,1,1.639-.71,3.3,3.3,0,0,1,1.555,1.037S707.846,186.3,706.8,184.282Z" transform="translate(-680.739 -164.926)" fill="#fff"/>
        <path id="Path_69" data-name="Path 69" d="M93.3,598.922a25.083,25.083,0,0,1,16.855.134S103.419,593.562,93.3,598.922Z" transform="translate(-86.724 -568.247)" fill="#ddc882"/>
      </g>
    </g>
    <path id="Path_1151" data-name="Path 1151" d="M15.484-13.58a6.011,6.011,0,0,0-6.02-6.02H4.452a1.536,1.536,0,0,0-1.54,1.54V-1.54A1.554,1.554,0,0,0,4.452,0,1.56,1.56,0,0,0,6.02-1.54V-7.616H9.464A6,6,0,0,0,15.484-13.58ZM6.02-16.492H9.464a2.91,2.91,0,0,1,2.912,2.912,2.9,2.9,0,0,1-2.912,2.856H6.02Zm22.512,4A1.5,1.5,0,0,0,27.048-14a1.521,1.521,0,0,0-1.456,1.232A6.383,6.383,0,0,0,21.868-14a6.448,6.448,0,0,0-4.76,2.1,7.066,7.066,0,0,0-1.9,4.928,7.166,7.166,0,0,0,1.9,4.928A6.5,6.5,0,0,0,21.868,0h0a6.359,6.359,0,0,0,3.724-1.2A1.524,1.524,0,0,0,27.048,0a1.494,1.494,0,0,0,1.484-1.484V-6.972h0Zm-4.06,8.4A3.619,3.619,0,0,1,21.868-3a3.527,3.527,0,0,1-2.6-1.092A4.2,4.2,0,0,1,18.2-6.972a4.1,4.1,0,0,1,1.064-2.884A3.376,3.376,0,0,1,21.868-11a3.461,3.461,0,0,1,2.6,1.148,4.117,4.117,0,0,1,1.092,2.884A4.219,4.219,0,0,1,24.472-4.088ZM38.92-13.972a6.139,6.139,0,0,0-3.528,1.092,3.682,3.682,0,0,0-.588.56v-.2a1.5,1.5,0,0,0-1.54-1.456,1.47,1.47,0,0,0-1.484,1.456V-1.484A1.494,1.494,0,0,0,33.264,0,1.525,1.525,0,0,0,34.8-1.484V-6.8a8.592,8.592,0,0,1,1.148-2.352A4.22,4.22,0,0,1,37.24-10.5a2.676,2.676,0,0,1,1.68-.532A1.494,1.494,0,0,0,40.4-12.516,1.452,1.452,0,0,0,38.92-13.972ZM47.264,0h0a7.714,7.714,0,0,0,4.452-1.484,1.547,1.547,0,0,0,.308-2.072,1.526,1.526,0,0,0-2.1-.308,4.533,4.533,0,0,1-2.66.9,4.126,4.126,0,0,1-4.144-4A4.149,4.149,0,0,1,47.264-11a4.467,4.467,0,0,1,2.66.9,1.491,1.491,0,0,0,2.1-.28,1.539,1.539,0,0,0-.308-2.072A7.379,7.379,0,0,0,47.264-14a7.123,7.123,0,0,0-7.112,7.028A7.094,7.094,0,0,0,47.264,0ZM57.988-7.868a3.061,3.061,0,0,1,3-3.024,3.047,3.047,0,0,1,3.024,3.024V-1.54A1.518,1.518,0,0,0,65.548,0a1.518,1.518,0,0,0,1.54-1.54V-7.868A6.124,6.124,0,0,0,60.984-14a6.383,6.383,0,0,0-3,.812V-18.06A1.542,1.542,0,0,0,56.42-19.6a1.536,1.536,0,0,0-1.54,1.54V-1.54a1.653,1.653,0,0,0,.056.392A1.588,1.588,0,0,0,56.42,0a1.542,1.542,0,0,0,1.568-1.54Zm13.356-6.1a1.5,1.5,0,0,0-1.512,1.54v10.92A1.506,1.506,0,0,0,71.344,0a1.488,1.488,0,0,0,1.512-1.512v-10.92A1.479,1.479,0,0,0,71.344-13.972Zm1.512-4.116A1.488,1.488,0,0,0,71.344-19.6a1.506,1.506,0,0,0-1.512,1.512v.588a1.53,1.53,0,0,0,1.512,1.54,1.512,1.512,0,0,0,1.512-1.54Z" transform="translate(147.378 171.615)" fill="#0c5f33"/>
  </g>
</svg>
